<svg xmlns="http://www.w3.org/2000/svg" style="display:none;">
  <!-- Home -->
  <symbol id="home" viewBox="0 0 512 512">
    <path fill="currentColor" d="M543.8 287.6c17 0 32-14 32-32.1c1-9-3-17-11-24L512 185V64c0-17.7-14.3-32-32-32H448c-17.7 0-32 14.3-32 32v36.7L309.5 7c-6-5-14-7-21-7s-15 1-22 8L10 231.5c-7 7-10 15-10 24c0 18 14 32.1 32 32.1h32v69.7c-.1 .9-.1 1.8-.1 2.8V472c0 22.1 17.9 40 40 40h16c1.2 0 2.4-.1 3.6-.2c1.5 .1 3 .2 4.5 .2H160h24c22.1 0 40-17.9 40-40V448 384c0-17.7 14.3-32 32-32h64c17.7 0 32 14.3 32 32v64 24c0 22.1 17.9 40 40 40h24 32.5c1.4 0 2.8 0 4.2-.1c1.1 .1 2.2 .1 3.3 .1h16c22.1 0 40-17.9 40-40V455.8c.3-2.6 .5-5.3 .5-8.1l-.7-160.2h32z"/>
  </symbol>

  <!-- config -->
  <symbol id="config" viewBox="0 0 512 512">
    <path fill="currentColor" d="M495.9 166.6c3.2 8.7 .5 18.4-6.4 24.6l-43.3 39.4c1.1 8.3 1.7 16.8 1.7 25.4s-.6 17.1-1.7 25.4l43.3 39.4c6.9 6.2 9.6 15.9 6.4 24.6c-4.4 11.9-9.7 23.3-15.8 34.3l-4.7 8.1c-6.6 11-14 21.4-22.1 31.2c-5.9 7.2-15.7 9.6-24.5 6.8l-55.7-17.7c-13.4 10.3-28.2 18.9-44 25.4l-12.5 57.1c-2 9.1-9 16.3-18.2 17.8c-13.8 2.3-28 3.5-42.5 3.5s-28.7-1.2-42.5-3.5c-9.2-1.5-16.2-8.7-18.2-17.8l-12.5-57.1c-15.8-6.5-30.6-15.1-44-25.4L83.1 425.9c-8.8 2.8-18.6 .3-24.5-6.8c-8.1-9.8-15.5-20.2-22.1-31.2l-4.7-8.1c-6.1-11-11.4-22.4-15.8-34.3c-3.2-8.7-.5-18.4 6.4-24.6l43.3-39.4C64.6 273.1 64 264.6 64 256s.6-17.1 1.7-25.4L22.4 191.2c-6.9-6.2-9.6-15.9-6.4-24.6c4.4-11.9 9.7-23.3 15.8-34.3l4.7-8.1c6.6-11 14-21.4 22.1-31.2c5.9-7.2 15.7-9.6 24.5-6.8l55.7 17.7c13.4-10.3 28.2-18.9 44-25.4l12.5-57.1c2-9.1 9-16.3 18.2-17.8C227.3 1.2 241.5 0 256 0s28.7 1.2 42.5 3.5c9.2 1.5 16.2 8.7 18.2 17.8l12.5 57.1c15.8 6.5 30.6 15.1 44 25.4l55.7-17.7c8.8-2.8 18.6-.3 24.5 6.8c8.1 9.8 15.5 20.2 22.1 31.2l4.7 8.1c6.1 11 11.4 22.4 15.8 34.3zM256 336c44.2 0 80-35.8 80-80s-35.8-80-80-80s-80 35.8-80 80s35.8 80 80 80z"/>
  </symbol>

  <!-- calc -->
  <symbol id="calc" viewBox="0 0 512 512">
    <path fill="currentColor" d="M64 0C28.7 0 0 28.7 0 64L0 448c0 35.3 28.7 64 64 64l256 0c35.3 0 64-28.7 64-64l0-384c0-35.3-28.7-64-64-64L64 0zM96 64l192 0c17.7 0 32 14.3 32 32l0 32c0 17.7-14.3 32-32 32L96 160c-17.7 0-32-14.3-32-32l0-32c0-17.7 14.3-32 32-32zm16 168a24 24 0 1 1 -48 0 24 24 0 1 1 48 0zm80 24a24 24 0 1 1 0-48 24 24 0 1 1 0 48zm128-24a24 24 0 1 1 -48 0 24 24 0 1 1 48 0zM88 352a24 24 0 1 1 0-48 24 24 0 1 1 0 48zm128-24a24 24 0 1 1 -48 0 24 24 0 1 1 48 0zm80 24a24 24 0 1 1 0-48 24 24 0 1 1 0 48zM64 424c0-13.3 10.7-24 24-24l112 0c13.3 0 24 10.7 24 24s-10.7 24-24 24L88 448c-13.3 0-24-10.7-24-24zm232-24c13.3 0 24 10.7 24 24s-10.7 24-24 24-24-10.7-24-24 10.7-24 24-24z"/>
  </symbol>

  <!-- chart -->
  <symbol id="chart" viewBox="0 0 512 512">
    <path fill="currentColor" d="M64 64c0-17.7-14.3-32-32-32S0 46.3 0 64L0 400c0 44.2 35.8 80 80 80l400 0c17.7 0 32-14.3 32-32s-14.3-32-32-32L80 416c-8.8 0-16-7.2-16-16L64 64zm406.6 86.6c12.5-12.5 12.5-32.8 0-45.3s-32.8-12.5-45.3 0L320 210.7 262.6 153.4c-12.5-12.5-32.8-12.5-45.3 0l-96 96c-12.5 12.5-12.5 32.8 0 45.3s32.8 12.5 45.3 0l73.4-73.4 57.4 57.4c12.5 12.5 32.8 12.5 45.3 0l128-128z"/>
  </symbol>

  <!-- checklist -->
  <symbol id="checklist" viewBox="0 0 512 512">
    <path fill="currentColor" d="M133.8 36.3c10.9 7.6 13.5 22.6 5.9 33.4l-56 80c-4.1 5.8-10.5 9.5-17.6 10.1S52 158 47 153L7 113C-2.3 103.6-2.3 88.4 7 79S31.6 69.7 41 79l19.8 19.8 39.6-56.6c7.6-10.9 22.6-13.5 33.4-5.9zm0 160c10.9 7.6 13.5 22.6 5.9 33.4l-56 80c-4.1 5.8-10.5 9.5-17.6 10.1S52 318 47 313L7 273c-9.4-9.4-9.4-24.6 0-33.9s24.6-9.4 33.9 0l19.8 19.8 39.6-56.6c7.6-10.9 22.6-13.5 33.4-5.9zM224 96c0-17.7 14.3-32 32-32l224 0c17.7 0 32 14.3 32 32s-14.3 32-32 32l-224 0c-17.7 0-32-14.3-32-32zm0 160c0-17.7 14.3-32 32-32l224 0c17.7 0 32 14.3 32 32s-14.3 32-32 32l-224 0c-17.7 0-32-14.3-32-32zM160 416c0-17.7 14.3-32 32-32l288 0c17.7 0 32 14.3 32 32s-14.3 32-32 32l-288 0c-17.7 0-32-14.3-32-32zM64 376a40 40 0 1 1 0 80 40 40 0 1 1 0-80z"/>
  </symbol>

<!-- cat -->
  <symbol id="cat" viewBox="0 0 512 512">
    <path fill="currentColor" d="M64 96c53 0 96 43 96 96l0 85.8c29.7-44.7 77.8-76.2 133.4-84 25.6 60 85.2 102.1 154.6 102.1 10.9 0 21.6-1.1 32-3.1L480 480c0 17.7-14.3 32-32 32s-32-14.3-32-32l0-140.8-136 108.8 56 0c17.7 0 32 14.3 32 32s-14.3 32-32 32l-144 0c-53 0-96-43-96-96l0-224c0-16.6-12.6-30.2-28.7-31.8l-6.6-.3C44.6 158.2 32 144.6 32 128 32 110.3 46.3 96 64 96zM533.8 3.2C544.2-5.5 560 1.9 560 15.5L560 128c0 61.9-50.1 112-112 112S336 189.9 336 128l0-112.5c0-13.6 15.8-21 26.2-12.3L416 48 480 48 533.8 3.2zM400 108a20 20 0 1 0 0 40 20 20 0 1 0 0-40zm96 0a20 20 0 1 0 0 40 20 20 0 1 0 0-40z"/>

<!-- sample cat -->
  <symbol id="sample" viewBox="0 0 512 512">
    <path fill="currentColor" d=""/>
  </symbol>
</svg>